<svg width="100" height="100" viewBox="0 0 100 100" fill="none" xmlns="http://www.w3.org/2000/svg">
<rect width="100" height="100" rx="4" fill="url(#paint0_linear_102_86)"/>
<path d="M26.2755 36.816V62.224H19.2355V71.952H44.5155V62.224H37.4115V27.152H20.1955V36.816H26.2755ZM32.0995 67.088H40.2275V67.6H23.5235V67.088H31.5235V32.016H24.4195V31.504H32.0995V67.088Z" fill="white"/>
<path d="M60.156 36.88H78.588V27.152H50.684V52.112C55.868 51.984 69.244 49.616 69.692 57.232C69.628 60.304 67.9 62.608 64.764 62.608C61.756 62.608 59.836 61.2 59.772 58.256C56.444 58.256 53.052 58.256 49.596 58.256C49.66 64.08 52.86 68.624 57.02 70.992C59.132 72.144 61.564 72.848 65.02 72.848C75.388 72.848 80.828 64.912 80.764 57.232C80.7 43.92 70.588 41.936 60.156 42.576V36.88ZM74.492 31.696V32.272H55.612V46.672C63.932 46.096 75.388 45.648 75.388 57.232C75.388 63.248 70.652 67.984 64.636 67.984C60.22 68.048 56.508 65.744 55.228 62.16H55.868C57.084 65.424 60.604 67.536 64.636 67.472C70.332 67.408 74.748 62.928 74.812 57.232C74.684 45.712 63.036 46.928 55.036 47.248C55.036 42 55.036 37.072 55.036 31.696C61.628 31.696 67.964 31.696 74.492 31.696Z" fill="white"/>
<defs>
<linearGradient id="paint0_linear_102_86" x1="0" y1="0" x2="100" y2="100" gradientUnits="userSpaceOnUse">
<stop stop-color="#3089DB"/>
<stop offset="0.505208" stop-color="#E10D63"/>
<stop offset="1" stop-color="#F78B0B"/>
</linearGradient>
</defs>
</svg>
